# File created by Blade
# Date/Time:  Tue Jan 27 18:55:59 2015
#---------------------------------------------------------
:version 1.10
:name HOM
:units
  mass 1.0
  length 1.000000
  angle deg
:documentation
     Acclaim Skeleton File
:root
   axis xyz
   order TX TY TZ RX RY RZ
   position 0.000000 0.000000 0.000000
   orientation 0 0 0
:bonedata
   begin
      id 1
      name Spine_dum
      direction 0.000000 1.000000 0.000000
      length 5.195262
      axis 0.0 0.0 0.0 xyz
   end
   begin
      id 2
      name LeftUpLeg_dum
      direction 1.000000 0.000000 0.000000
      length 3.351363
      axis 0.0 0.0 0.0 xyz
   end
   begin
      id 3
      name RightUpLeg_dum
      direction -1.000000 0.000000 0.000000
      length 3.351363
      axis 0.0 0.0 0.0 xyz
   end
   begin
      id 4
      name Spine
      direction 0.000000 1.000000 0.000000
      length 0.000000
      axis 0.0 0.0 0.0 xyz
      dof rx ry rz
   end
   begin
      id 5
      name Spine_dum1
      direction 0.000000 1.000000 0.000000
      length 15.653875
      axis 0.0 0.0 0.0 xyz
   end
   begin
      id 6
      name Spine_dum2
      direction 0.000000 1.000000 0.000000
      length 10.329768
      axis 0.0 0.0 0.0 xyz
   end
   begin
      id 7
      name Spine_dum3
      direction 0.000000 1.000000 0.000000
      length 10.329768
      axis 0.0 0.0 0.0 xyz
   end
   begin
      id 8
      name Head
      direction 0.000000 1.000000 0.000000
      length 4.527550
      axis 0.0 0.0 0.0 xyz
      dof rx ry rz
   end
   begin
      id 9
      name LeftShoulder
      direction 1.000000 0.000000 0.000000
      length 6.996006
      axis 0.0 0.0 -90.0 xyz
      dof rx ry rz
   end
   begin
      id 10
      name LeftArm
      direction 1.000000 0.000000 0.000000
      length 10.209302
      axis 0.0 0.0 -90.0 xyz
      dof rx ry rz
   end
   begin
      id 11
      name LeftForeArm
      direction 1.000000 0.000000 0.000000
      length 8.563163
      axis 0.0 0.0 -90.0 xyz
      dof ry rz rx
   end
   begin
      id 12
      name LeftHand
      direction 0.000000 0.000000 0.000000
      length 0.000000
      axis 0.0 0.0 -90.0 xyz
      dof rx ry rz
   end
   begin
      id 13
      name LeftHand_dum1
      direction 0.000000 0.000000 0.000000
      length 0.000000
      axis 0.0 0.0 -90.0 xyz
   end
   begin
      id 14
      name LeftHand_dum2
      direction 1.000000 0.000000 0.000000
      length 3.937000
      axis 0.0 0.0 -90.0 xyz
   end
   begin
      id 15
      name LeftHandThumb1
      direction 0.000000 0.000000 1.000000
      length 3.937000
      axis 0.0 0.0 -90.0 xyz
      dof rx rz ry
   end
   begin
      id 16
      name RightShoulder
      direction -1.000000 0.000000 0.000000
      length 6.996006
      axis 0.0 0.0 90.0 xyz
      dof rx ry rz
   end
   begin
      id 17
      name RightArm
      direction -1.000000 0.000000 0.000000
      length 10.209302
      axis 0.0 0.0 90.0 xyz
      dof rx ry rz
   end
   begin
      id 18
      name RightForeArm
      direction -1.000000 0.000000 0.000000
      length 8.563163
      axis 0.0 0.0 90.0 xyz
      dof ry rz rx
   end
   begin
      id 19
      name RightHand
      direction 0.000000 0.000000 0.000000
      length 0.000000
      axis 0.0 0.0 90.0 xyz
      dof rx ry rz
   end
   begin
      id 20
      name RightHand_dum1
      direction 0.000000 0.000000 0.000000
      length 0.000000
      axis 0.0 0.0 90.0 xyz
   end
   begin
      id 21
      name RightHand_dum2
      direction -1.000000 0.000000 0.000000
      length 3.937000
      axis 0.0 0.0 90.0 xyz
   end
   begin
      id 22
      name RightHandThumb1
      direction 0.000000 0.000000 1.000000
      length 3.937000
      axis 0.0 0.0 90.0 xyz
      dof rx rz ry
   end
   begin
      id 23
      name LeftUpLeg
      direction 0.000000 -1.000000 0.000000
      length 16.346831
      axis 0.0 0.0 0.0 xyz
      dof rx ry rz
   end
   begin
      id 24
      name LeftLeg
      direction 0.000000 -1.000000 0.000000
      length 13.959795
      axis 0.0 0.0 0.0 xyz
      dof rx ry rz
   end
   begin
      id 25
      name LeftFoot
      direction 0.000000 -0.258819 0.965926
      length 5.165550
      axis 15.0 0.0 0.0 xyz
      dof rx ry rz
   end
   begin
      id 26
      name LeftToeBase
      direction 0.000000 0.000000 1.000000
      length 2.952750
      axis 0.0 0.0 0.0 xyz
      dof rx ry rz
   end
   begin
      id 27
      name RightUpLeg
      direction 0.000000 -1.000000 0.000000
      length 16.346831
      axis 0.0 0.0 0.0 xyz
      dof rx ry rz
   end
   begin
      id 28
      name RightLeg
      direction 0.000000 -1.000000 0.000000
      length 13.959795
      axis 0.0 0.0 0.0 xyz
      dof rx ry rz
   end
   begin
      id 29
      name RightFoot
      direction 0.000000 -0.258819 0.965926
      length 5.165550
      axis 15.0 0.0 0.0 xyz
      dof rx ry rz
   end
   begin
      id 30
      name RightToeBase
      direction 0.000000 0.000000 1.000000
      length 2.952750
      axis 0.0 0.0 0.0 xyz
      dof rx ry rz
   end
:hierarchy
   begin
      root Spine_dum LeftUpLeg_dum RightUpLeg_dum
      Spine_dum Spine
      LeftUpLeg_dum LeftUpLeg
      RightUpLeg_dum RightUpLeg
      Spine Spine_dum1 Spine_dum2 Spine_dum3
      Spine_dum1 Head
      Spine_dum2 LeftShoulder
      Spine_dum3 RightShoulder
      LeftShoulder LeftArm
      LeftArm LeftForeArm
      LeftForeArm LeftHand
      LeftHand LeftHand_dum1 LeftHand_dum2
      LeftHand_dum1 LeftHandThumb1
      RightShoulder RightArm
      RightArm RightForeArm
      RightForeArm RightHand
      RightHand RightHand_dum1 RightHand_dum2
      RightHand_dum1 RightHandThumb1
      LeftUpLeg LeftLeg
      LeftLeg LeftFoot
      LeftFoot LeftToeBase
      RightUpLeg RightLeg
      RightLeg RightFoot
      RightFoot RightToeBase
   end

# File created by Blade
# Date/Time:  Tue Jan 27 18:55:50 2015
# Frame Rate: 120.000 fps
#------------------------------------------------------
:FULLY-SPECIFIED
:DEGREES
733
root -1.660916 31.802888 -4.215338 1.093234 48.582488 -2.963265
Spine 1.977433 -10.153398 -3.098548
Head 17.625358 8.871085 4.006594
LeftShoulder -15.219305 10.814698 14.522843
LeftArm 27.284441 -19.585136 -71.295350
LeftForeArm -13.893221 -0.000000 72.413376
LeftHand -5.496256 -0.000000 22.829231
LeftHandThumb1 -26.253704 0.000000 33.147579
RightShoulder -11.127458 -2.607293 -10.640892
RightArm 6.869678 -35.050799 83.089273
RightForeArm -26.000997 -0.000000 30.795595
RightHand -14.262766 -0.000000 11.392628
RightHandThumb1 -24.326973 -0.000000 -32.862282
LeftUpLeg -7.110207 -24.189362 -2.495489
LeftLeg 20.453920 -0.000000 -0.000000
LeftFoot -21.851454 8.348298 -17.680686
LeftToeBase 7.822890 -0.000000 -0.000000
RightUpLeg -50.641372 12.230912 -4.569918
RightLeg 102.231442 -0.000000 -0.000000
RightFoot 6.747246 6.988735 16.594186
RightToeBase 10.284519 -0.000000 -0.000000
734
root -1.651185 31.805407 -4.211344 1.078808 48.774264 -2.956094
Spine 1.908292 -10.187054 -3.083827
Head 17.917246 8.672932 4.074651
LeftShoulder -15.176166 10.822179 14.529135
LeftArm 27.354229 -19.437404 -71.408487
LeftForeArm -13.840498 -0.000000 72.398774
LeftHand -5.446516 -0.000000 22.838746
LeftHandThumb1 -26.253704 0.000000 33.147579
RightShoulder -11.170202 -2.751391 -10.598485
RightArm 6.855438 -35.159664 83.020631
RightForeArm -25.864748 -0.000000 30.746403
RightHand -14.142489 -0.000000 11.468871
RightHandThumb1 -24.326973 -0.000000 -32.862282
LeftUpLeg -7.081984 -24.198710 -2.504231
LeftLeg 20.437895 -0.000000 -0.000000
LeftFoot -21.781175 8.175158 -17.661160
LeftToeBase 7.909720 -0.000000 -0.000000
RightUpLeg -50.568961 12.018755 -4.428909
RightLeg 103.313136 -0.000000 -0.000000
RightFoot 7.007247 6.715689 16.454003
RightToeBase 10.344051 -0.000000 -0.000000
735
root -1.643864 31.808261 -4.208530 1.081819 48.950592 -2.932535
Spine 1.845385 -10.209081 -3.089135
Head 18.169789 8.508759 4.153748
LeftShoulder -15.133029 10.805758 14.533257
LeftArm 27.387730 -19.292467 -71.482593
LeftForeArm -13.802443 0.000000 72.419728
LeftHand -5.437231 -0.000000 22.844480
LeftHandThumb1 -26.253704 0.000000 33.147579
RightShoulder -11.207827 -2.847995 -10.557746
RightArm 6.836559 -35.317538 82.968270
RightForeArm -25.783114 -0.000000 30.601437
RightHand -13.958979 -0.000000 11.460582
RightHandThumb1 -24.326973 -0.000000 -32.862282
LeftUpLeg -7.062900 -24.186006 -2.513060
LeftLeg 20.416852 -0.000000 -0.000000
LeftFoot -21.685768 7.987845 -17.659784
LeftToeBase 7.906932 -0.000000 -0.000000
RightUpLeg -50.528360 11.849621 -4.332999
RightLeg 104.351203 -0.000000 -0.000000
RightFoot 7.399839 6.497559 16.602732
RightToeBase 10.299407 -0.000000 -0.000000
736
root -1.637375 31.811415 -4.205796 1.091223 49.094850 -2.914422
Spine 1.776097 -10.198633 -3.092480
Head 18.394397 8.379731 4.229928
LeftShoulder -15.109096 10.722774 14.548008
LeftArm 27.362737 -19.103126 -71.514689
LeftForeArm -13.731475 0.000000 72.436486
LeftHand -5.386293 -0.000000 22.808962
LeftHandThumb1 -26.253704 0.000000 33.147579
RightShoulder -11.254732 -2.928502 -10.506199
RightArm 6.845642 -35.556734 82.891053
RightForeArm -25.800522 -0.000000 30.401448
RightHand -14.073639 -0.000000 11.668372
RightHandThumb1 -24.326973 -0.000000 -32.862282
LeftUpLeg -7.051982 -24.158059 -2.516783
LeftLeg 20.393860 -0.000000 -0.000000
LeftFoot -21.609304 7.829964 -17.645897
LeftToeBase 7.979463 -0.000000 -0.000000
RightUpLeg -50.497816 11.709091 -4.247817
RightLeg 105.340190 -0.000000 -0.000000
RightFoot 7.772159 6.343108 16.686043
RightToeBase 10.191163 -0.000000 -0.000000
737
root -1.631000 31.815010 -4.203168 1.101879 49.216424 -2.892454
Spine 1.712628 -10.196389 -3.100405
Head 18.594524 8.289816 4.291021
LeftShoulder -15.103897 10.729787 14.501085
LeftArm 27.421893 -18.985045 -71.528774
LeftForeArm -13.663592 -0.000000 72.472423
LeftHand -5.414175 -0.000000 22.740121
LeftHandThumb1 -26.253704 0.000000 33.147579
RightShoulder -11.278170 -2.996581 -10.468768
RightArm 6.895588 -35.877409 82.809904
RightForeArm -25.801566 -0.000000 30.102195
RightHand -14.050938 -0.000000 11.692123
RightHandThumb1 -24.326973 -0.000000 -32.862282
LeftUpLeg -7.032874 -24.137923 -2.526410
LeftLeg 20.359982 -0.000000 -0.000000
LeftFoot -21.539213 7.674739 -17.681753
LeftToeBase 7.964430 -0.000000 -0.000000
RightUpLeg -50.474067 11.599505 -4.183929
RightLeg 106.253740 -0.000000 -0.000000
RightFoot 8.091758 6.259479 17.060441
RightToeBase 11.003021 -0.000000 -0.000000
738
root -1.624754 31.818962 -4.200358 1.099330 49.321327 -2.877821
Spine 1.660814 -10.198275 -3.109169
Head 18.770265 8.267886 4.359096
LeftShoulder -15.094518 10.677356 14.467352
LeftArm 27.372157 -18.867070 -71.494844
LeftForeArm -13.583029 -0.000000 72.549933
LeftHand -5.438164 -0.000000 22.618409
LeftHandThumb1 -26.253704 0.000000 33.147579
RightShoulder -11.282178 -3.023658 -10.439653
RightArm 6.916346 -36.157338 82.759600
RightForeArm -25.786760 -0.000000 29.772844
RightHand -14.100842 0.000000 11.814903
RightHandThumb1 -24.326973 -0.000000 -32.862282
LeftUpLeg -6.997876 -24.108997 -2.536626
LeftLeg 20.318282 -0.000000 -0.000000
LeftFoot -21.459599 7.567217 -17.646569
LeftToeBase 8.006624 -0.000000 -0.000000
RightUpLeg -50.440655 11.520979 -4.137132
RightLeg 107.107986 -0.000000 -0.000000
RightFoot 8.525914 6.324659 16.815116
RightToeBase 10.774805 -0.000000 -0.000000
739
root -1.619687 31.822127 -4.197588 1.087920 49.397619 -2.879896
Spine 1.607090 -10.178681 -3.105719
Head 18.926277 8.244213 4.411427
LeftShoulder -15.089056 10.745499 14.429325
LeftArm 27.401555 -18.754378 -71.480328
LeftForeArm -13.549429 -0.000000 72.625499
LeftHand -5.368036 -0.000000 22.549845
LeftHandThumb1 -26.253704 0.000000 33.147579
RightShoulder -11.274010 -3.016208 -10.437439
RightArm 6.901129 -36.394254 82.772688
RightForeArm -25.875736 -0.000000 29.390061
RightHand -14.082331 -0.000000 11.981973
RightHandThumb1 -24.326973 -0.000000 -32.862282
LeftUpLeg -6.968845 -24.087556 -2.536968
LeftLeg 20.299158 -0.000000 -0.000000
LeftFoot -21.381627 7.468781 -17.581331
LeftToeBase 7.902399 -0.000000 -0.000000
RightUpLeg -50.427173 11.488668 -4.091277
RightLeg 107.858533 -0.000000 -0.000000
RightFoot 9.011358 6.378032 16.650141
RightToeBase 10.550681 -0.000000 -0.000000
740
root -1.615523 31.824991 -4.196267 1.088631 49.458256 -2.872373
Spine 1.554245 -10.153873 -3.113103
Head 19.056387 8.251337 4.472841
LeftShoulder -15.076284 10.749947 14.388797
LeftArm 27.347918 -18.656205 -71.404661
LeftForeArm -13.540979 -0.000000 72.733997
LeftHand -5.313558 -0.000000 22.422935
LeftHandThumb1 -26.253704 0.000000 33.147579
RightShoulder -11.260262 -3.005430 -10.439683
RightArm 6.909371 -36.623366 82.785529
RightForeArm -25.936577 -0.000000 28.964553
RightHand -13.948466 0.000000 12.113057
RightHandThumb1 -24.326973 -0.000000 -32.862282
LeftUpLeg -6.949581 -24.050846 -2.546502
LeftLeg 20.255378 -0.000000 -0.000000
LeftFoot -21.344647 7.432491 -17.579851
LeftToeBase 7.964066 -0.000000 -0.000000
RightUpLeg -50.427558 11.479894 -4.078601
RightLeg 108.528250 -0.000000 -0.000000
RightFoot 9.468824 6.510914 16.473188
RightToeBase 9.643564 -0.000000 -0.000000
741
root -1.612096 31.827005 -4.195963 1.088240 49.493447 -2.861601
Spine 1.513704 -10.135089 -3.125971
Head 19.159557 8.318786 4.538299
LeftShoulder -15.082927 10.745970 14.339049
LeftArm 27.297418 -18.590468 -71.333547
LeftForeArm -13.505191 -0.000000 72.831549
LeftHand -5.304073 -0.000000 22.299404
LeftHandThumb1 -26.253704 0.000000 33.147579
RightShoulder -11.213741 -2.939232 -10.466702
RightArm 6.865291 -36.844103 82.856272
RightForeArm -25.901010 -0.000000 28.506107
RightHand -13.837496 -0.000000 12.250017
RightHandThumb1 -24.326973 -0.000000 -32.862282
LeftUpLeg -6.919679 -24.051314 -2.566317
LeftLeg 20.219359 -0.000000 -0.000000
LeftFoot -21.308763 7.447117 -17.542461
LeftToeBase 7.994600 -0.000000 -0.000000
RightUpLeg -50.442348 11.503523 -4.082066
RightLeg 109.131016 -0.000000 -0.000000
RightFoot 9.869806 6.526248 16.461236
RightToeBase 9.641286 -0.000000 -0.000000
742
root -1.609897 31.828157 -4.197032 1.077416 49.521431 -2.861726
Spine 1.486202 -10.091185 -3.137514
Head 19.235539 8.360558 4.612229
LeftShoulder -15.083133 10.758895 14.300813
LeftArm 27.286949 -18.507150 -71.267777
LeftForeArm -13.475247 -0.000000 72.903043
LeftHand -5.260344 -0.000000 22.321790
LeftHandThumb1 -26.253704 0.000000 33.147579
RightShoulder -11.189520 -2.886240 -10.492009
RightArm 6.854506 -37.058110 82.925690
RightForeArm -25.888795 -0.000000 28.003590
RightHand -13.728392 -0.000000 12.266687
RightHandThumb1 -24.326973 -0.000000 -32.862282
LeftUpLeg -6.892087 -24.081476 -2.581038
LeftLeg 20.190053 -0.000000 -0.000000
LeftFoot -21.299529 7.481905 -17.521540
LeftToeBase 7.957277 -0.000000 -0.000000
RightUpLeg -50.469899 11.539804 -4.087161
RightLeg 109.623515 -0.000000 -0.000000
RightFoot 10.312069 6.544647 16.169251
RightToeBase 9.284813 -0.000000 -0.000000
743
root -1.608535 31.828569 -4.198822 1.064438 49.530501 -2.859584
Spine 1.476597 -10.071613 -3.155700
Head 19.276604 8.449007 4.682170
LeftShoulder -15.123709 10.800200 14.240966
LeftArm 27.298862 -18.473125 -71.221768
LeftForeArm -13.435942 -0.000000 73.001510
LeftHand -5.330496 -0.000000 22.357150
LeftHandThumb1 -26.253704 0.000000 33.147579
RightShoulder -11.142930 -2.856934 -10.512007
RightArm 6.896445 -37.250560 82.957621
RightForeArm -25.861531 -0.000000 27.535163
RightHand -13.830597 -0.000000 12.287620
RightHandThumb1 -24.326973 -0.000000 -32.862282
LeftUpLeg -6.860710 -24.114342 -2.601146
LeftLeg 20.161194 -0.000000 -0.000000
LeftFoot -21.299187 7.543991 -17.505366
LeftToeBase 7.999996 -0.000000 -0.000000
RightUpLeg -50.511350 11.599492 -4.109584
RightLeg 110.031097 -0.000000 -0.000000
RightFoot 10.642560 6.498131 16.293666
RightToeBase 8.767048 -0.000000 -0.000000
744
root -1.607526 31.828863 -4.200096 1.041590 49.501461 -2.858400
Spine 1.477523 -10.010369 -3.181755
Head 19.317031 8.556284 4.757106
LeftShoulder -15.138044 10.825449 14.204930
LeftArm 27.259462 -18.466892 -71.181588
LeftForeArm -13.438541 -0.000000 73.112925
LeftHand -5.317123 -0.000000 22.347900
LeftHandThumb1 -26.253704 0.000000 33.147579
RightShoulder -11.114709 -2.816830 -10.523092
RightArm 6.934993 -37.427017 82.993688
RightForeArm -25.748111 0.000000 27.054832
RightHand -13.817612 -0.000000 12.618715
RightHandThumb1 -24.326973 -0.000000 -32.862282
LeftUpLeg -6.807990 -24.151688 -2.622935
LeftLeg 20.115755 -0.000000 -0.000000
LeftFoot -21.312290 7.629721 -17.501201
LeftToeBase 8.019483 -0.000000 -0.000000
RightUpLeg -50.547607 11.708345 -4.135298
RightLeg 110.320663 -0.000000 -0.000000
RightFoot 10.800744 6.397006 16.387860
RightToeBase 8.973569 -0.000000 -0.000000
745
root -1.608033 31.828343 -4.202866 1.014697 49.469713 -2.866728
Spine 1.485646 -9.958348 -3.193837
Head 19.327344 8.663586 4.804248
LeftShoulder -15.165228 10.884736 14.149578
LeftArm 27.270059 -18.479672 -71.138120
LeftForeArm -13.463209 -0.000000 73.191789
LeftHand -5.319856 -0.000000 22.353217
LeftHandThumb1 -26.253704 0.000000 33.147579
RightShoulder -11.082900 -2.753754 -10.551102
RightArm 6.942166 -37.546289 83.059237
RightForeArm -25.691906 -0.000000 26.597350
RightHand -13.856171 -0.000000 12.859949
RightHandThumb1 -24.326973 -0.000000 -32.862282
LeftUpLeg -6.772752 -24.214493 -2.634018
LeftLeg 20.089642 -0.000000 -0.000000
LeftFoot -21.344234 7.710829 -17.512453
LeftToeBase 7.965990 -0.000000 -0.000000
RightUpLeg -50.592687 11.836598 -4.172172
RightLeg 110.520489 -0.000000 -0.000000
RightFoot 10.872105 6.275510 16.578609
RightToeBase 9.697792 -0.000000 -0.000000
